<?xml version="1.0"?>
<!-- Generated by SVGo and Plotinum VG -->
<svg width="360pt" height="360pt" viewBox="0 0 360 360"
	xmlns="http://www.w3.org/2000/svg"
	xmlns:xlink="http://www.w3.org/1999/xlink">
<g transform="scale(1, -1) translate(0, -360)">
<path d="M0,0L360,0L360,360L0,360Z" style="fill:#FFFFFF" />
<text x="86.707" y="-348.45" transform="scale(1, -1)"
	style="font-family:Times;font-weight:normal;font-style:normal;font-size:12px">Membership Function Tes Kompetensi</text>
<text x="159.59" y="-3.8613" transform="scale(1, -1)"
	style="font-family:Times;font-weight:normal;font-style:normal;font-size:12px">Tes Kompetensi</text>
<text x="41.666" y="-15.602" transform="scale(1, -1)"
	style="font-family:Times;font-weight:normal;font-style:normal;font-size:10px">0</text>
<text x="193.33" y="-15.602" transform="scale(1, -1)"
	style="font-family:Times;font-weight:normal;font-style:normal;font-size:10px">50</text>
<text x="345" y="-15.602" transform="scale(1, -1)"
	style="font-family:Times;font-weight:normal;font-style:normal;font-size:10px">100</text>
<path d="M44.166,25.23L44.166,33.23" style="fill:none;stroke:#000000;stroke-width:0.5" />
<path d="M198.33,25.23L198.33,33.23" style="fill:none;stroke:#000000;stroke-width:0.5" />
<path d="M352.5,25.23L352.5,33.23" style="fill:none;stroke:#000000;stroke-width:0.5" />
<path d="M74.999,29.23L74.999,33.23" style="fill:none;stroke:#000000;stroke-width:0.5" />
<path d="M105.83,29.23L105.83,33.23" style="fill:none;stroke:#000000;stroke-width:0.5" />
<path d="M136.67,29.23L136.67,33.23" style="fill:none;stroke:#000000;stroke-width:0.5" />
<path d="M167.5,29.23L167.5,33.23" style="fill:none;stroke:#000000;stroke-width:0.5" />
<path d="M229.17,29.23L229.17,33.23" style="fill:none;stroke:#000000;stroke-width:0.5" />
<path d="M260,29.23L260,33.23" style="fill:none;stroke:#000000;stroke-width:0.5" />
<path d="M290.83,29.23L290.83,33.23" style="fill:none;stroke:#000000;stroke-width:0.5" />
<path d="M321.67,29.23L321.67,33.23" style="fill:none;stroke:#000000;stroke-width:0.5" />
<path d="M44.166,33.23L352.5,33.23" style="fill:none;stroke:#000000;stroke-width:0.5" />
<g transform="rotate(90)">
<text x="174.42" y="11.555" transform="scale(1, -1)"
	style="font-family:Times;font-weight:normal;font-style:normal;font-size:12px">Fuzzy</text>
</g>
<text x="15.416" y="-33.759" transform="scale(1, -1)"
	style="font-family:Times;font-weight:normal;font-style:normal;font-size:10px">0.0</text>
<text x="15.416" y="-184.36" transform="scale(1, -1)"
	style="font-family:Times;font-weight:normal;font-style:normal;font-size:10px">0.5</text>
<text x="15.416" y="-334.96" transform="scale(1, -1)"
	style="font-family:Times;font-weight:normal;font-style:normal;font-size:10px">1.0</text>
<path d="M30.416,38.48L38.416,38.48" style="fill:none;stroke:#000000;stroke-width:0.5" />
<path d="M30.416,189.08L38.416,189.08" style="fill:none;stroke:#000000;stroke-width:0.5" />
<path d="M30.416,339.68L38.416,339.68" style="fill:none;stroke:#000000;stroke-width:0.5" />
<path d="M34.416,68.6L38.416,68.6" style="fill:none;stroke:#000000;stroke-width:0.5" />
<path d="M34.416,98.72L38.416,98.72" style="fill:none;stroke:#000000;stroke-width:0.5" />
<path d="M34.416,128.84L38.416,128.84" style="fill:none;stroke:#000000;stroke-width:0.5" />
<path d="M34.416,158.96L38.416,158.96" style="fill:none;stroke:#000000;stroke-width:0.5" />
<path d="M34.416,219.2L38.416,219.2" style="fill:none;stroke:#000000;stroke-width:0.5" />
<path d="M34.416,249.32L38.416,249.32" style="fill:none;stroke:#000000;stroke-width:0.5" />
<path d="M34.416,279.44L38.416,279.44" style="fill:none;stroke:#000000;stroke-width:0.5" />
<path d="M34.416,309.56L38.416,309.56" style="fill:none;stroke:#000000;stroke-width:0.5" />
<path d="M38.416,38.48L38.416,339.68" style="fill:none;stroke:#000000;stroke-width:0.5" />
<path d="M44.166,339.68L50.459,339.68L56.751,339.68L63.044,339.68L69.336,339.68L75.629,339.68L81.921,339.68L88.214,339.68L94.506,339.68L100.8,339.68L107.09,339.68L113.38,339.68L119.68,339.68L125.97,339.68L132.26,339.68L138.55,339.68L144.85,339.68L151.14,339.68L157.43,339.68L163.72,339.68L170.02,339.68L176.31,339.68L182.6,339.68L188.89,339.68L195.19,339.68L201.48,278.21L207.77,155.27L214.06,38.48L220.36,38.48L226.65,38.48L232.94,38.48L239.23,38.48L245.53,38.48L251.82,38.48L258.11,38.48L264.4,38.48L270.7,38.48L276.99,38.48L283.28,38.48L289.57,38.48L295.87,38.48L302.16,38.48L308.45,38.48L314.74,38.48L321.04,38.48L327.33,38.48L333.62,38.48L339.91,38.48L346.21,38.48L352.5,38.48" style="fill:none;stroke:#FF0000" />
<path d="M44.166,38.48L50.459,38.48L56.751,38.48L63.044,38.48L69.336,38.48L75.629,38.48L81.921,38.48L88.214,38.48L94.506,38.48L100.8,38.48L107.09,38.48L113.38,38.48L119.68,38.48L125.97,38.48L132.26,38.48L138.55,38.48L144.85,38.48L151.14,38.48L157.43,38.48L163.72,38.48L170.02,38.48L176.31,38.48L182.6,38.48L188.89,38.48L195.19,38.48L201.48,38.48L207.77,61.019L214.06,142.98L220.36,224.94L226.65,306.89L232.94,339.68L239.23,339.68L245.53,302.8L251.82,56.921L258.11,38.48L264.4,38.48L270.7,38.48L276.99,38.48L283.28,38.48L289.57,38.48L295.87,38.48L302.16,38.48L308.45,38.48L314.74,38.48L321.04,38.48L327.33,38.48L333.62,38.48L339.91,38.48L346.21,38.48L352.5,38.48" style="fill:none;stroke:#00FF00" />
<path d="M44.166,38.48L50.459,38.48L56.751,38.48L63.044,38.48L69.336,38.48L75.629,38.48L81.921,38.48L88.214,38.48L94.506,38.48L100.8,38.48L107.09,38.48L113.38,38.48L119.68,38.48L125.97,38.48L132.26,38.48L138.55,38.48L144.85,38.48L151.14,38.48L157.43,38.48L163.72,38.48L170.02,38.48L176.31,38.48L182.6,38.48L188.89,38.48L195.19,38.48L201.48,38.48L207.77,38.48L214.06,38.48L220.36,38.48L226.65,38.48L232.94,38.48L239.23,38.48L245.53,56.921L251.82,179.86L258.11,302.8L264.4,339.68L270.7,339.68L276.99,339.68L283.28,339.68L289.57,339.68L295.87,339.68L302.16,339.68L308.45,339.68L314.74,339.68L321.04,339.68L327.33,339.68L333.62,339.68L339.91,339.68L346.21,339.68L352.5,339.68" style="fill:none;stroke:#0000FF" />
</g>
</svg>
