<?xml version="1.0"?>
<!-- Generated by SVGo and Plotinum VG -->
<svg width="1080pt" height="1080pt" viewBox="0 0 1080 1080"
	xmlns="http://www.w3.org/2000/svg"
	xmlns:xlink="http://www.w3.org/1999/xlink">
<g transform="scale(1, -1) translate(0, -1080)">
<path d="M0,0L1080,0L1080,1080L0,1080Z" style="fill:#FFFFFF" />
<text x="489.85" y="-1068.4" transform="scale(1, -1)"
	style="font-family:Times;font-weight:normal;font-style:normal;font-size:12px">Penerimaan Pegawai</text>
<text x="538.81" y="-3.8613" transform="scale(1, -1)"
	style="font-family:Times;font-weight:normal;font-style:normal;font-size:12px">Tes Kompetensi</text>
<text x="121.24" y="-15.602" transform="scale(1, -1)"
	style="font-family:Times;font-weight:normal;font-style:normal;font-size:10px">40</text>
<text x="566.98" y="-15.602" transform="scale(1, -1)"
	style="font-family:Times;font-weight:normal;font-style:normal;font-size:10px">60</text>
<text x="1012.7" y="-15.602" transform="scale(1, -1)"
	style="font-family:Times;font-weight:normal;font-style:normal;font-size:10px">80</text>
<path d="M126.24,25.23L126.24,33.23" style="fill:none;stroke:#000000;stroke-width:0.5" />
<path d="M571.98,25.23L571.98,33.23" style="fill:none;stroke:#000000;stroke-width:0.5" />
<path d="M1017.7,25.23L1017.7,33.23" style="fill:none;stroke:#000000;stroke-width:0.5" />
<path d="M349.11,29.23L349.11,33.23" style="fill:none;stroke:#000000;stroke-width:0.5" />
<path d="M794.84,29.23L794.84,33.23" style="fill:none;stroke:#000000;stroke-width:0.5" />
<path d="M81.666,33.23L1073.4,33.23" style="fill:none;stroke:#000000;stroke-width:0.5" />
<g transform="rotate(90)">
<text x="501.88" y="11.555" transform="scale(1, -1)"
	style="font-family:Times;font-weight:normal;font-style:normal;font-size:12px">Kepribadian</text>
</g>
<text x="15.416" y="-106.8" transform="scale(1, -1)"
	style="font-family:Times;font-weight:normal;font-style:normal;font-size:10px">20</text>
<text x="15.416" y="-398.98" transform="scale(1, -1)"
	style="font-family:Times;font-weight:normal;font-style:normal;font-size:10px">40</text>
<text x="15.416" y="-691.16" transform="scale(1, -1)"
	style="font-family:Times;font-weight:normal;font-style:normal;font-size:10px">60</text>
<text x="15.416" y="-983.34" transform="scale(1, -1)"
	style="font-family:Times;font-weight:normal;font-style:normal;font-size:10px">80</text>
<path d="M27.916,111.53L35.916,111.53" style="fill:none;stroke:#000000;stroke-width:0.5" />
<path d="M27.916,403.7L35.916,403.7" style="fill:none;stroke:#000000;stroke-width:0.5" />
<path d="M27.916,695.88L35.916,695.88" style="fill:none;stroke:#000000;stroke-width:0.5" />
<path d="M27.916,988.06L35.916,988.06" style="fill:none;stroke:#000000;stroke-width:0.5" />
<path d="M31.916,257.61L35.916,257.61" style="fill:none;stroke:#000000;stroke-width:0.5" />
<path d="M31.916,549.79L35.916,549.79" style="fill:none;stroke:#000000;stroke-width:0.5" />
<path d="M31.916,841.97L35.916,841.97" style="fill:none;stroke:#000000;stroke-width:0.5" />
<path d="M35.916,38.48L35.916,1024.6" style="fill:none;stroke:#000000;stroke-width:0.5" />
<path d="M594.26,367.18A5.6843e-15,5.6843e-15 0 1 1 594.26,367.18A5.6843e-15,5.6843e-15 0 1 1 594.26,367.18Z" style="fill:#826EE8" />
<path d="M857.13,671.05A40,40 0 1 1 777.13,671.05A40,40 0 1 1 857.13,671.05Z" style="fill:#4A0ED0" />
<path d="M661.12,342.35A5.6843e-15,5.6843e-15 0 1 1 661.12,342.35A5.6843e-15,5.6843e-15 0 1 1 661.12,342.35Z" style="fill:#BE4CE8" />
<path d="M571.98,574.63A5.6843e-15,5.6843e-15 0 1 1 571.98,574.63A5.6843e-15,5.6843e-15 0 1 1 571.98,574.63Z" style="fill:#6E8AE8" />
<path d="M912.85,915.02A40,40 0 1 1 832.85,915.02A40,40 0 1 1 912.85,915.02Z" style="fill:#7C5CCF" />
<path d="M733.98,732.41A17.143,17.143 0 1 1 699.7,732.41A17.143,17.143 0 1 1 733.98,732.41Z" style="fill:#F06294" />
<path d="M1073.4,38.48A5.6843e-15,5.6843e-15 0 1 1 1073.4,38.48A5.6843e-15,5.6843e-15 0 1 1 1073.4,38.48Z" style="fill:#30ACE8" />
<path d="M594.26,367.18A5.6843e-15,5.6843e-15 0 1 1 594.26,367.18A5.6843e-15,5.6843e-15 0 1 1 594.26,367.18Z" style="fill:#826EE8" />
<path d="M404.83,611.15A5.6843e-15,5.6843e-15 0 1 1 404.83,611.15A5.6843e-15,5.6843e-15 0 1 1 404.83,611.15Z" style="fill:#D8BCE8" />
<path d="M556.26,976.37A40,40 0 1 1 476.26,976.37A40,40 0 1 1 556.26,976.37Z" style="fill:#3CB0CF" />
<path d="M890.56,647.67A40,40 0 1 1 810.56,647.67A40,40 0 1 1 890.56,647.67Z" style="fill:#68EED0" />
<path d="M912.85,915.02A40,40 0 1 1 832.85,915.02A40,40 0 1 1 912.85,915.02Z" style="fill:#7C5CCF" />
<path d="M368.35,853.66A8.1013,8.1013 0 1 1 352.15,853.66A8.1013,8.1013 0 1 1 368.35,853.66Z" style="fill:#B008B2" />
<path d="M627.69,671.05A5.6843e-15,5.6843e-15 0 1 1 627.69,671.05A5.6843e-15,5.6843e-15 0 1 1 627.69,671.05Z" style="fill:#A00EE8" />
<path d="M627.69,695.88A5.6843e-15,5.6843e-15 0 1 1 627.69,695.88A5.6843e-15,5.6843e-15 0 1 1 627.69,695.88Z" style="fill:#A030E8" />
<path d="M750.27,123.21A5.6843e-15,5.6843e-15 0 1 1 750.27,123.21A5.6843e-15,5.6843e-15 0 1 1 750.27,123.21Z" style="fill:#0E20E8" />
<path d="M121.67,1024.6A40,40 0 1 1 41.666,1024.6A40,40 0 1 1 121.67,1024.6Z" style="fill:#B6F2D0" />
<path d="M412.93,853.66A8.1013,8.1013 0 1 1 396.72,853.66A8.1013,8.1013 0 1 1 412.93,853.66Z" style="fill:#D808B2" />
<path d="M1080,720.72A40,40 0 1 1 1000,720.72A40,40 0 1 1 1080,720.72Z" style="fill:#1252D0" />
<path d="M879.42,805.45A40,40 0 1 1 799.42,805.45A40,40 0 1 1 879.42,805.45Z" style="fill:#5EC6D0" />
<path d="M605.41,586.32A5.6843e-15,5.6843e-15 0 1 1 605.41,586.32A5.6843e-15,5.6843e-15 0 1 1 605.41,586.32Z" style="fill:#8C9AE8" />
<path d="M733.98,671.05A17.143,17.143 0 1 1 699.7,671.05A17.143,17.143 0 1 1 733.98,671.05Z" style="fill:#F00E94" />
<path d="M817.13,488.44A5.6843e-15,5.6843e-15 0 1 1 817.13,488.44A5.6843e-15,5.6843e-15 0 1 1 817.13,488.44Z" style="fill:#4A14E8" />
<path d="M672.27,622.84A0,0 0 1 1 672.27,622.84A0,0 0 1 1 672.27,622.84Z" style="fill:#C8CCE7" />
<path d="M556.26,976.37A40,40 0 1 1 476.26,976.37A40,40 0 1 1 556.26,976.37Z" style="fill:#3CB0CF" />
<path d="M1017.7,488.44A5.6843e-15,5.6843e-15 0 1 1 1017.7,488.44A5.6843e-15,5.6843e-15 0 1 1 1017.7,488.44Z" style="fill:#FE14E8" />
<path d="M1060.7,598A9.5522,9.5522 0 1 1 1041.6,598A9.5522,9.5522 0 1 1 1060.7,598Z" style="fill:#1CAAD6" />
<path d="M594.26,757.24A5.6843e-15,5.6843e-15 0 1 1 594.26,757.24A5.6843e-15,5.6843e-15 0 1 1 594.26,757.24Z" style="fill:#8284E8" />
<path d="M259.96,780.61A5.6843e-15,5.6843e-15 0 1 1 259.96,780.61A5.6843e-15,5.6843e-15 0 1 1 259.96,780.61Z" style="fill:#56A4E8" />
<path d="M973.14,538.11A5.6843e-15,5.6843e-15 0 1 1 973.14,538.11A5.6843e-15,5.6843e-15 0 1 1 973.14,538.11Z" style="fill:#D658E8" />
<text x="856.42" y="-38.703" transform="scale(1, -1)"
	style="font-family:Times;font-weight:normal;font-style:normal;font-size:12px">The bigger the circle, the bigger the value</text>
</g>
</svg>
